<?xml version="1.0" encoding="UTF-8"?>
<!DOCTYPE svg PUBLIC "-//W3C//DTD SVG 1.1//EN" "http://www.w3.org/Graphics/SVG/1.1/DTD/svg11.dtd">
<!-- Creator: CorelDRAW 2020 (64-Bit) -->
<svg xmlns="http://www.w3.org/2000/svg" xml:space="preserve" width="6.11313in" height="4.58118in" version="1.1" style="shape-rendering:geometricPrecision; text-rendering:geometricPrecision; image-rendering:optimizeQuality; fill-rule:evenodd; clip-rule:evenodd"
viewBox="0 0 6744.71 5054.48"
 xmlns:xlink="http://www.w3.org/1999/xlink"
 xmlns:xodm="http://www.corel.com/coreldraw/odm/2003">
 <defs>
  <style type="text/css">
   <![CDATA[
    .str6 {stroke:#164859;stroke-width:12.51;stroke-miterlimit:10}
    .str3 {stroke:#164859;stroke-width:85.1;stroke-miterlimit:10}
    .str5 {stroke:#FFF7E6;stroke-width:8.55;stroke-linejoin:round;stroke-miterlimit:10}
    .str4 {stroke:#C1DDFF;stroke-width:21.97;stroke-linejoin:round;stroke-miterlimit:10}
    .str0 {stroke:#3F89C1;stroke-width:28.33;stroke-linecap:round;stroke-miterlimit:10}
    .str2 {stroke:#B1BFCA;stroke-width:28.33;stroke-linecap:round;stroke-miterlimit:10}
    .str1 {stroke:#B1BFCA;stroke-width:14.17;stroke-linecap:round;stroke-miterlimit:10}
    .fil3 {fill:none;fill-rule:nonzero}
    .fil14 {fill:#0C2833;fill-rule:nonzero}
    .fil34 {fill:#0F2F3B;fill-rule:nonzero}
    .fil35 {fill:#133D4D;fill-rule:nonzero}
    .fil29 {fill:#164454;fill-rule:nonzero}
    .fil22 {fill:#164859;fill-rule:nonzero}
    .fil40 {fill:#5283C1;fill-rule:nonzero}
    .fil32 {fill:#66A1ED;fill-rule:nonzero}
    .fil33 {fill:#8CBCF6;fill-rule:nonzero}
    .fil25 {fill:#99C4F6;fill-rule:nonzero}
    .fil42 {fill:#AAB5F2;fill-rule:nonzero}
    .fil23 {fill:#AAB8D8;fill-rule:nonzero}
    .fil24 {fill:#B3D3F6;fill-rule:nonzero}
    .fil27 {fill:#C1DDFF;fill-rule:nonzero}
    .fil1 {fill:#C6E6FD;fill-rule:nonzero}
    .fil39 {fill:#CC3852;fill-rule:nonzero}
    .fil36 {fill:#CF2849;fill-rule:nonzero}
    .fil41 {fill:#DF3D5B;fill-rule:nonzero}
    .fil43 {fill:#DFA880;fill-rule:nonzero}
    .fil31 {fill:#DFEBEF;fill-rule:nonzero}
    .fil26 {fill:#DFEFF2;fill-rule:nonzero}
    .fil0 {fill:#DFF0FD;fill-rule:nonzero}
    .fil19 {fill:#E8A323;fill-rule:nonzero}
    .fil18 {fill:#F4AF31;fill-rule:nonzero}
    .fil20 {fill:#F4C33D;fill-rule:nonzero}
    .fil44 {fill:#F7C19C;fill-rule:nonzero}
    .fil21 {fill:#F9CFC8;fill-rule:nonzero}
    .fil17 {fill:#FF5D7B;fill-rule:nonzero}
    .fil37 {fill:#FFD86E;fill-rule:nonzero}
    .fil38 {fill:#FFE69E;fill-rule:nonzero}
    .fil30 {fill:white;fill-rule:nonzero}
    .fil15 {fill:#7EC8FD;fill-rule:nonzero;fill-opacity:0.588235}
    .fil16 {fill:#EFF7FF;fill-rule:nonzero;fill-opacity:0.588235}
    .fil28 {fill:#DFEFF2;fill-rule:nonzero}
    .fil13 {fill:url(#id0);fill-rule:nonzero}
    .fil9 {fill:url(#id1);fill-rule:nonzero}
    .fil10 {fill:url(#id2);fill-rule:nonzero}
    .fil12 {fill:url(#id3);fill-rule:nonzero}
    .fil7 {fill:url(#id4);fill-rule:nonzero}
    .fil6 {fill:url(#id5);fill-rule:nonzero}
    .fil5 {fill:url(#id6);fill-rule:nonzero}
    .fil2 {fill:url(#id7);fill-rule:nonzero}
    .fil4 {fill:url(#id8);fill-rule:nonzero}
    .fil11 {fill:url(#id9);fill-rule:nonzero}
    .fil8 {fill:url(#id10);fill-rule:nonzero}
   ]]>
  </style>
  <linearGradient id="id0" gradientUnits="userSpaceOnUse" x1="1860.29" y1="4233.68" x2="1860.29" y2="3219.99">
   <stop offset="0" style="stop-opacity:1; stop-color:#536E82"/>
   <stop offset="0.239216" style="stop-opacity:1; stop-color:#536E82"/>
   <stop offset="1" style="stop-opacity:1; stop-color:#CFE6F7"/>
  </linearGradient>
  <linearGradient id="id1" gradientUnits="userSpaceOnUse" xlink:href="#id0" x1="2096.75" y1="4138.62" x2="2096.75" y2="2281.69">
  </linearGradient>
  <linearGradient id="id2" gradientUnits="userSpaceOnUse" xlink:href="#id0" x1="1048.4" y1="3262.48" x2="1048.4" y2="2118.86">
  </linearGradient>
  <linearGradient id="id3" gradientUnits="userSpaceOnUse" x1="1091.26" y1="2592.78" x2="2097.49" y2="2592.78">
   <stop offset="0" style="stop-opacity:1; stop-color:#3898D3"/>
   <stop offset="0.188235" style="stop-opacity:1; stop-color:#3898D3"/>
   <stop offset="0.65098" style="stop-opacity:1; stop-color:#7AABDB"/>
   <stop offset="1" style="stop-opacity:1; stop-color:#7AABDB"/>
  </linearGradient>
  <linearGradient id="id4" gradientUnits="userSpaceOnUse" xlink:href="#id0" x1="5615.73" y1="4204.95" x2="5615.73" y2="2789.85">
  </linearGradient>
  <linearGradient id="id5" gradientUnits="userSpaceOnUse" xlink:href="#id3" x1="5009.83" y1="2700.98" x2="5803.39" y2="2700.98">
  </linearGradient>
  <linearGradient id="id6" gradientUnits="userSpaceOnUse" xlink:href="#id0" x1="5521.1" y1="2150" x2="5521.1" y2="1457.69">
  </linearGradient>
  <linearGradient id="id7" gradientUnits="userSpaceOnUse" xlink:href="#id3" x1="5496.85" y1="1442.13" x2="5921.05" y2="1513.95">
  </linearGradient>
  <linearGradient id="id8" gradientUnits="userSpaceOnUse" xlink:href="#id0" x1="5642.75" y1="2553.02" x2="5642.75" y2="1608.51">
  </linearGradient>
  <linearGradient id="id9" gradientUnits="userSpaceOnUse" xlink:href="#id0" x1="1152.97" y1="2889.91" x2="1152.97" y2="1517.26">
  </linearGradient>
  <linearGradient id="id10" gradientUnits="userSpaceOnUse" xlink:href="#id0" x1="6038.19" y1="4174.14" x2="6038.19" y2="2688.7">
  </linearGradient>
 </defs>
 <g id="Layer_x0020_1">
  <metadata id="CorelCorpID_0Corel-Layer"/>
  <g id="_2016758017152">
   <g>
    <path class="fil0" d="M3236.22 1939.85c7.24,-20.38 11.22,-42.31 11.22,-65.18 0,-105.32 -83.63,-191.05 -188.1,-194.55 -23.68,-96.52 -110.74,-168.15 -214.57,-168.15 -5.78,0 -11.49,0.29 -17.15,0.73 -19.02,-15.6 -41.49,-27.14 -66.09,-33.32 -12.18,-60.89 -55.08,-110.65 -111.86,-132.5 2.39,-16.84 3.71,-34.03 3.71,-51.53 0,-200.73 -162.73,-363.46 -363.46,-363.46 -194.43,0 -353.19,152.66 -362.98,344.66 -132.18,15.56 -234.75,127.89 -234.75,264.26 0,5.94 0.27,11.81 0.65,17.65 -72.17,9.25 -127.99,70.76 -127.99,145.45 0,56.81 32.33,105.98 79.55,130.38 -1.98,9.62 -3.03,19.58 -3.03,29.79 0,26.97 7.39,52.16 20.09,73.88l-3.09 0c-55.8,0 -101.46,45.66 -101.46,101.46 0,55.8 45.66,101.46 101.46,101.46l1558.59 0c55.8,0 101.46,-45.66 101.46,-101.46 0,-49.21 -35.52,-90.48 -82.18,-99.56z"/>
    <path class="fil0" d="M3939.18 1652.84c-5.52,-15.53 -8.55,-32.24 -8.55,-49.67 0,-80.26 63.74,-145.6 143.35,-148.27 18.05,-73.56 84.4,-128.15 163.53,-128.15 4.4,0 8.75,0.22 13.07,0.56 14.5,-11.89 31.62,-20.68 50.37,-25.39 9.28,-46.41 41.98,-84.33 85.25,-100.98 -1.82,-12.84 -2.82,-25.93 -2.82,-39.27 0,-152.98 124.01,-276.99 276.99,-276.99 148.17,0 269.16,116.34 276.62,262.65 100.73,11.85 178.9,97.47 178.9,201.39 0,4.53 -0.2,9 -0.5,13.46 55,7.05 97.54,53.93 97.54,110.84 0,43.29 -24.64,80.77 -60.62,99.36 1.51,7.33 2.31,14.92 2.31,22.7 0,20.55 -5.64,39.75 -15.31,56.3l2.36 0c42.53,0 77.32,34.79 77.32,77.32 0,42.53 -34.79,77.32 -77.32,77.32l-1187.79 0c-42.53,0 -77.32,-34.8 -77.32,-77.32 0,-37.5 27.07,-68.95 62.62,-75.87z"/>
    <path class="fil0" d="M3145.13 549.17c-3.94,-11.1 -6.11,-23.05 -6.11,-35.51 0,-57.39 45.57,-104.09 102.48,-106 12.91,-52.59 60.34,-91.61 116.9,-91.61 3.15,0 6.26,0.16 9.35,0.4 10.36,-8.5 22.6,-14.79 36.01,-18.15 6.63,-33.18 30.01,-60.29 60.94,-72.19 -1.3,-9.17 -2.02,-18.54 -2.02,-28.07 0,-109.37 88.66,-198.03 198.02,-198.03 105.93,0 192.43,83.17 197.77,187.78 72.02,8.48 127.89,69.68 127.89,143.98 0,3.24 -0.14,6.43 -0.35,9.62 39.32,5.04 69.73,38.56 69.73,79.24 0,30.95 -17.61,57.75 -43.34,71.04 1.08,5.24 1.65,10.67 1.65,16.23 0,14.69 -4.03,28.42 -10.95,40.25l1.69 0c30.4,0 55.28,24.87 55.28,55.27 0,30.41 -24.88,55.28 -55.28,55.28l-849.17 0c-30.4,0 -55.27,-24.87 -55.27,-55.28 0,-26.81 19.35,-49.29 44.77,-54.24z"/>
    <path class="fil0" d="M4401.25 2941.92c-5.52,-15.53 -8.54,-32.25 -8.54,-49.67 0,-80.26 63.73,-145.6 143.34,-148.27 18.05,-73.56 84.4,-128.14 163.53,-128.14 4.4,0 8.75,0.22 13.07,0.56 14.5,-11.89 31.62,-20.68 50.37,-25.39 9.28,-46.41 41.98,-84.33 85.25,-100.98 -1.82,-12.84 -2.82,-25.94 -2.82,-39.27 0,-152.98 124.01,-276.99 276.99,-276.99 148.17,0 269.16,116.34 276.62,262.65 100.74,11.85 178.9,97.47 178.9,201.39 0,4.53 -0.2,9 -0.49,13.46 55,7.05 97.53,53.93 97.53,110.84 0,43.29 -24.64,80.77 -60.62,99.36 1.51,7.33 2.31,14.92 2.31,22.7 0,20.55 -5.64,39.75 -15.31,56.3l2.36 0c42.53,0 77.32,34.79 77.32,77.32 0,42.53 -34.79,77.32 -77.32,77.32l-1187.79 0c-42.53,0 -77.32,-34.79 -77.32,-77.32 0,-37.5 27.07,-68.95 62.62,-75.87z"/>
    <path class="fil0" d="M484.17 3473.01c-5.52,-15.53 -8.54,-32.25 -8.54,-49.68 0,-80.26 63.73,-145.6 143.35,-148.27 18.05,-73.56 84.39,-128.14 163.52,-128.14 4.4,0 8.75,0.22 13.07,0.55 14.5,-11.89 31.62,-20.68 50.37,-25.39 9.28,-46.4 41.98,-84.33 85.25,-100.98 -1.82,-12.83 -2.82,-25.93 -2.82,-39.27 0,-152.98 124.01,-276.98 276.99,-276.98 148.17,0 269.17,116.33 276.62,262.65 100.73,11.85 178.89,97.47 178.89,201.39 0,4.53 -0.2,9 -0.49,13.45 55,7.05 97.53,53.93 97.53,110.84 0,43.29 -24.64,80.77 -60.62,99.36 1.51,7.33 2.32,14.92 2.32,22.7 0,20.56 -5.64,39.75 -15.31,56.3l2.36 0c42.53,0 77.32,34.79 77.32,77.32l0 0c0,42.53 -34.8,77.32 -77.32,77.32l-1187.79 0c-42.53,0 -77.32,-34.79 -77.32,-77.32l0 -0c0,-37.5 27.07,-68.95 62.62,-75.87z"/>
   </g>
   <path class="fil1" d="M6744.71 4511.85c0,299.69 -1509.86,542.64 -3372.35,542.64 -1862.5,0 -3372.36,-242.95 -3372.36,-542.64 0,-299.69 1509.86,-542.63 3372.36,-542.63 1862.5,0 3372.35,242.94 3372.35,542.63z"/>
   <g>
    <g>
     <path class="fil2" d="M5588.77 1867.33c0,0 -101.9,-370.02 -83.04,-533.13 18.86,-163.1 108.36,-111.12 125.3,10.55 16.95,121.67 117.3,57.79 43.32,-119.38 -73.99,-177.16 102.51,-298.4 136.34,-191.12 33.82,107.28 -114.37,483.76 -58.89,503.82 55.47,20.07 60.17,-173.82 119.95,-166.64 59.78,7.18 67.1,196.61 -44.87,331.98 -111.97,135.38 -112.41,234.71 -158.4,256.09 -45.99,21.38 -79.71,-92.18 -79.71,-92.18z"/>
     <path class="fil3 str0" d="M5639.11 1831.8c0,0 -16.6,-155.23 9.55,-220.13 26.15,-64.89 60.47,-193.39 60.47,-193.39"/>
     <path class="fil3 str0" d="M5642.65 1627.99c0,0 -53.71,-98.64 -46.46,-141.46"/>
     <path class="fil3 str0" d="M5632.66 1686.98c2.08,7.09 198.22,-97.17 212.46,-158.3"/>
    </g>
    <g>
     <path class="fil4" d="M5414.9 2356.7c0,0 33.13,-279.87 193.03,-464.72 159.91,-184.85 261.3,-209.54 261.3,-209.54 0,0 94.39,232.61 -99.9,483.4 -194.28,250.79 -452.66,452.18 -354.44,190.86z"/>
     <path class="fil3 str1" d="M5399.78 2472.37c0,0 321.87,-454.17 421.3,-723.14"/>
     <path class="fil3 str1" d="M5430.35 2428.38c0,0 117.79,-48.42 136.22,-67.14"/>
     <path class="fil3 str1" d="M5496.61 2107.64c-22.17,49.53 18.91,193.65 18.91,193.65 0,0 125.46,-2.22 142.36,-21.7"/>
     <path class="fil3 str1" d="M5597.3 2173.07c0,0 86.86,-5.62 132.7,-20.81"/>
     <path class="fil3 str1" d="M5663.66 2055.9c0,0 134.4,7.51 166.54,-25.21"/>
     <path class="fil3 str1" d="M5630.42 2114.58c0,0 -47.29,-149.35 -20.79,-189.21"/>
     <path class="fil3 str1" d="M5726.91 1950.63c0,0 108.8,-1.68 135,-31.31"/>
     <path class="fil3 str1" d="M5758.4 1890.12c0,0 -29.39,-63.94 -18.8,-81.34"/>
    </g>
    <g>
     <path class="fil5" d="M5426.29 2050.41c0,0 -50.87,-198.56 9.18,-365.87 60.05,-167.32 122.38,-210.64 122.38,-210.64 0,0 124.99,133.08 58.9,354.14 -66.09,221.06 -188.61,425.41 -190.45,222.37z"/>
     <path class="fil3 str1" d="M5446.35 2132.85c0,0 99.36,-392.48 96.33,-601.02"/>
     <path class="fil3 str1" d="M5455.56 2095c0,0 67.22,-63.72 74.83,-81.25"/>
     <path class="fil3 str1" d="M5416.46 1860.02c-2.06,39.41 63.58,126.43 63.58,126.43 0,0 84.53,-34.38 90.9,-52.03"/>
     <path class="fil3 str1" d="M5501.92 1878.02c0,0 57.46,-26.58 84.57,-48.89"/>
     <path class="fil3 str1" d="M5516.24 1781.14c0,0 93.16,-30.12 106.39,-60.75"/>
     <path class="fil3 str1" d="M5509.07 1829.67c0,0 -71.22,-88.93 -63.69,-122.92"/>
     <path class="fil3 str1" d="M5531.57 1693.15c0,0 73.37,-29.65 83.39,-56.62"/>
     <path class="fil3 str1" d="M5537.07 1643.84c0,0 -36.7,-35.68 -34.08,-50.26"/>
    </g>
    <g>
     <path class="fil6" d="M5326 3446.46c0,0 -299.24,-641.54 -315.17,-943.96 -15.93,-302.43 162.83,-235.45 231.12,-19.4 68.29,216.05 231.12,68.97 42.03,-230.44 -189.1,-299.41 94.55,-574.22 189.1,-389.54 94.55,184.68 -59.04,914.96 48.03,934.38 107.06,19.42 55.9,-334.63 166.83,-339.98 110.93,-5.36 182.57,336.88 20.62,617.55 -161.94,280.67 -132.16,461.45 -209.22,514.49 -77.05,53.04 -173.34,-143.11 -173.34,-143.11z"/>
     <path class="fil3 str0" d="M5406.61 3366.35c0,0 -77.99,-277.19 -50.41,-403.26 27.58,-126.06 50.41,-370.31 50.41,-370.31"/>
     <path class="fil3 str0" d="M5350.3 2994.61c0,0 -128.05,-162.85 -128.05,-242.95"/>
     <path class="fil3 str0" d="M5350.3 3104.96c5.96,12.25 330.57,-237.74 337.64,-353.3"/>
    </g>
    <g>
     <path class="fil7" d="M5501.82 4038.44c0,0 -168.04,-400.26 -94.03,-769.39 74.02,-369.13 191.18,-479.19 191.18,-479.19 0,0 303.06,240.13 233.03,723.73 -70.04,483.6 -263.48,949.65 -330.18,524.86z"/>
     <path class="fil3 str2" d="M5569.36 4204.95c0,0 86.67,-853.04 15.76,-1289.02"/>
     <path class="fil3 str2" d="M5576.94 4122.79c0,0 121.11,-154.31 131.62,-193.39"/>
     <path class="fil3 str2" d="M5422.29 3642.6c7.88,83.21 172.34,245.19 172.34,245.19 0,0 166.46,-98.21 174.34,-137.14"/>
     <path class="fil3 str2" d="M5606.91 3653.87c0,0 112.16,-73.46 162.06,-128.62"/>
     <path class="fil3 str2" d="M5606.91 3446.46c0,0 185.85,-91.95 204.08,-160.21"/>
     <path class="fil3 str2" d="M5606.91 3550.33c0,0 -176.74,-164.28 -171.49,-237.82"/>
     <path class="fil3 str2" d="M5611.79 3257.35c0,0 144.55,-84.83 157.18,-144.44"/>
     <path class="fil3 str2" d="M5608.05 3152.34c0,0 -87.93,-63.4 -86.95,-94.75"/>
    </g>
    <g>
     <path class="fil8" d="M5767.56 3925.81c0,0 -49.79,-431.24 124.21,-765.1 174,-333.86 317.2,-406.89 317.2,-406.89 0,0 224.1,315.11 22.01,760.01 -202.09,444.9 -517.8,838.54 -463.42,411.99z"/>
     <path class="fil3 str2" d="M5786 4104.55c0,0 321.06,-795.06 374.51,-1233.52"/>
     <path class="fil3 str2" d="M5816.19 4027.76c0,0 159.33,-114.43 180.32,-149.03"/>
     <path class="fil3 str2" d="M5801.54 3523.49c-15.63,82.11 97.15,283.52 97.15,283.52 0,0 187.24,-47.9 205.66,-83.1"/>
     <path class="fil3 str2" d="M5975.7 3585.78c0,0 128.19,-39.28 191.49,-78.34"/>
     <path class="fil3 str2" d="M6033.53 3386.6c0,0 204.11,-36.49 240.65,-96.96"/>
     <path class="fil3 str2" d="M6004.57 3486.35c0,0 -123.94,-207.05 -98.39,-276.2"/>
     <path class="fil3 str2" d="M6090.93 3206.35c0,0 162.47,-41.17 191.23,-94.89"/>
     <path class="fil3 str2" d="M6116.63 3104.46c0,0 -66.77,-85.4 -57.09,-115.23"/>
    </g>
   </g>
   <g>
    <g>
     <path class="fil9" d="M2647.8 3816.44c0,0 -630.07,-174.88 -997.42,-606.9 -367.35,-432.02 -388.13,-673.26 -388.13,-673.26 0,0 566.76,-134.21 1073.16,399.93 506.4,534.14 876.89,1197.82 312.39,880.22z"/>
     <path class="fil3 str2" d="M2907.71 3891.98c0,0 -927.68,-898.61 -1509.32,-1221.66"/>
     <path class="fil3 str2" d="M2817.65 3806.34c0,0 -69.41,-287.21 -105.81,-336.11"/>
     <path class="fil3 str2" d="M2105.57 3541.04c105.73,68.34 450.74,25.07 450.74,25.07 0,0 39.24,-288.46 0.56,-334.11"/>
     <path class="fil3 str2" d="M2291.2 3333.27c0,0 17.82,-201.17 -0.82,-311.64"/>
     <path class="fil3 str2" d="M2045.98 3139.7c0,0 64.74,-305.55 1.05,-390.81"/>
     <path class="fil3 str2" d="M2168.79 3236.64c0,0 -359.19,55.64 -441.23,-19.2"/>
     <path class="fil3 str2" d="M1826.94 2957.44c0,0 34.61,-250.08 -24.08,-320.64"/>
     <path class="fil3 str2" d="M1699.31 2863.84c0,0 -157.02,44.79 -193.18,14.37"/>
    </g>
    <g>
     <path class="fil10" d="M1387.77 3064.05c0,0 -388.03,-107.7 -614.27,-373.76 -226.24,-266.06 -239.03,-414.63 -239.03,-414.63 0,0 349.05,-82.65 660.92,246.3 311.87,328.96 540.04,737.68 192.39,542.09z"/>
     <path class="fil3 str2" d="M1547.83 3110.58c0,0 -571.32,-553.41 -929.53,-752.37"/>
     <path class="fil3 str2" d="M1492.36 3057.84c0,0 -42.75,-176.88 -65.17,-206.99"/>
     <path class="fil3 str2" d="M1053.83 2894.45c65.12,42.09 277.59,15.44 277.59,15.44 0,0 24.16,-177.65 0.35,-205.76"/>
     <path class="fil3 str2" d="M1168.15 2766.49c0,0 10.97,-123.89 -0.5,-191.92"/>
     <path class="fil3 str2" d="M1017.13 2647.28c0,0 39.87,-188.18 0.65,-240.68"/>
     <path class="fil3 str2" d="M1092.76 2706.98c0,0 -221.21,34.27 -271.74,-11.82"/>
     <path class="fil3 str2" d="M882.23 2535.04c0,0 21.32,-154.01 -14.83,-197.47"/>
     <path class="fil3 str2" d="M803.63 2477.39c0,0 -96.7,27.59 -118.97,8.85"/>
    </g>
    <g>
     <path class="fil11" d="M1264.95 2696.19c0,0 -288.86,-280.59 -359.79,-622.56 -70.93,-341.97 -10.92,-478.48 -10.92,-478.48 0,0 345.93,94.86 461.84,533.08 115.92,438.22 120.14,906.3 -91.14,567.95z"/>
     <path class="fil3 str2" d="M1383.1 2813.77c0,0 -235.94,-759.6 -454.87,-1105.97"/>
     <path class="fil3 str2" d="M1359.72 2740.89c0,0 47.31,-175.71 42.08,-212.89"/>
     <path class="fil3 str2" d="M1053.25 2387.22c36.96,68.16 236.19,146.67 236.19,146.67 0,0 106.4,-144.3 98.98,-180.4"/>
     <path class="fil3 str2" d="M1214.93 2329.75c0,0 69.04,-103.45 91.6,-168.66"/>
     <path class="fil3 str2" d="M1139.57 2152.72c0,0 125.23,-146.01 115.99,-210.89"/>
     <path class="fil3 str2" d="M1177.32 2241.38c0,0 -210.55,-76.01 -232.78,-140.69"/>
     <path class="fil3 str2" d="M1075.03 1989.53c0,0 92.57,-124.93 81.69,-180.4"/>
     <path class="fil3 str2" d="M1033.7 1901.26c0,0 -98.09,-22.16 -108.64,-49.28"/>
    </g>
    <g>
     <path class="fil12" d="M1492.16 3538.04c0,0 -379.43,-813.47 -399.63,-1196.94 -20.2,-383.47 206.47,-298.55 293.06,-24.59 86.59,273.95 293.06,87.45 53.28,-292.19 -239.78,-379.65 119.89,-728.11 239.78,-493.94 119.89,234.18 -74.86,1160.17 60.9,1184.79 135.76,24.62 70.89,-424.31 211.55,-431.1 140.66,-6.78 231.49,427.18 26.15,783.06 -205.34,355.88 -167.58,585.1 -265.29,652.37 -97.71,67.26 -219.79,-181.45 -219.79,-181.45z"/>
     <path class="fil3 str0" d="M1594.38 3436.47c0,0 -98.89,-351.48 -63.92,-511.33 34.97,-159.85 63.92,-469.56 63.92,-469.56"/>
     <path class="fil3 str0" d="M1522.97 2965.1c0,0 -162.36,-206.49 -162.36,-308.05"/>
     <path class="fil3 str0" d="M1522.97 3105.03c7.56,15.53 419.16,-301.46 428.13,-447.98"/>
    </g>
    <g>
     <path class="fil13" d="M2643.45 4040.27c0,0 -635.5,153.95 -1166.69,-44.61 -531.19,-198.56 -666.77,-399.17 -666.77,-399.17 0,0 429.75,-393.12 1132.11,-173.04 702.37,220.08 1349.06,619.46 701.36,616.83z"/>
     <path class="fil3 str2" d="M2907.26 3979.74c0,0 -1247.77,-333.37 -1913.11,-332.43"/>
     <path class="fil3 str2" d="M2786.9 3948.78c0,0 -200.44,-217.1 -256.04,-242.09"/>
     <path class="fil3 str2" d="M2035.74 4063.66c125.63,8.23 405.94,-197.52 405.94,-197.52 0,0 -106.14,-271.08 -162.15,-292.13"/>
     <path class="fil3 str2" d="M2096.75 3791.81c0,0 -82.36,-184.4 -152.42,-271.83"/>
     <path class="fil3 str2" d="M1788.32 3742.08c0,0 -92.19,-298.41 -189.33,-341.89"/>
     <path class="fil3 str2" d="M1942.79 3766.99c0,0 -286.67,223.46 -394.77,198.01"/>
     <path class="fil3 str2" d="M1508.26 3689.5c0,0 -91.5,-235.3 -177.12,-268.37"/>
     <path class="fil3 str2" d="M1351.21 3669.88c0,0 -115.36,115.56 -161.74,106.59"/>
    </g>
   </g>
   <g>
    <path class="fil14" d="M1473.22 3854.19c-17.13,-19.55 -34.34,-34.92 -53.32,-50.16 -18.81,-14.99 -38.67,-28.79 -59.68,-41.2 -20.98,-12.44 -43.16,-23.46 -66.59,-32.85 -5.81,-2.43 -11.71,-4.64 -17.81,-6.68l-9.08 -3.12c-3.38,-1.07 -5.02,-1.95 -10.86,-3.31 -19.79,-5.57 -40.66,-6.19 -59.41,-3.95 -18.93,2.24 -36.05,7.38 -50.97,13.73 -15.11,6.31 -28.62,13.71 -40.75,21.64 -24.63,15.81 -44.68,33.46 -63.36,51.54 -18.49,18.14 -35.08,37.01 -50.41,56.51 -7.67,9.74 -15.08,19.61 -22.27,29.68l-10.64 15.31c-2.64,3.94 -4.99,7.44 -7.68,11.65 -30.24,36.97 -60.34,74.05 -90.07,111.42 -30.66,38.23 -61.31,76.48 -91.48,115.1 -30.42,38.42 -60.45,77.15 -90.38,115.97 -11.69,15.17 -23.07,30.58 -34.65,45.84l0 181.54c19.99,0.43 40.01,-7.44 54.04,-23.79 31.94,-37.21 63.51,-74.73 94.73,-112.51 31.21,-37.79 62.32,-75.66 93.04,-113.85 30.96,-37.99 61.46,-76.35 91.94,-114.74 30.63,-38.26 60.89,-76.82 90.99,-115.49l2.88 -3.71 2.71 -4.35 7.15 -11.46 8.24 -12.4c5.63,-8.24 11.49,-16.38 17.48,-24.33 12.07,-15.83 24.62,-30.96 37.46,-44.72 12.86,-13.52 26.26,-25.94 39,-34.75 12.62,-9.1 24.73,-14.38 31.14,-15.34 3.33,-0.56 5.3,-0.9 7.1,-0.43 -0.33,-0.36 3.28,0.76 5.26,1.27l6.92 1.88c4.62,1.13 9.24,2.71 13.93,4.1 18.7,5.57 37.73,12.09 56.92,19.25 19.22,7.09 38.73,14.55 58.39,22.34 19.46,7.58 39.97,16.28 59.08,22.94l3.93 1.38c14.32,4.95 30.81,2.28 43.02,-8.41 18.11,-15.87 19.92,-43.42 4.05,-61.53z"/>
    <path class="fil14" d="M2726.24 3752.24c-1.4,-8.17 -3.72,-16.17 -6.75,-23.75 -6.07,-15.1 -15.18,-27.76 -24.72,-37.85 -9.55,-10.21 -19.69,-18.02 -29.69,-24.55 -10.06,-6.65 -19.96,-11.5 -29.79,-15.91 -4.86,-2.06 -9.85,-4.04 -14.63,-5.69l-7.3 -2.57 -9.47 -2.52c-25.41,-6.56 -52.93,-6.95 -77.64,-2.2 -24.95,4.52 -47.14,13.44 -66.55,23.95 -19.62,10.45 -36.62,22.74 -51.89,35.85 -15.39,13.05 -29.09,26.87 -41.9,41.21 -6.39,7.18 -12.5,14.53 -18.44,22.1l-8.81 11.61c-3.1,4.29 -5.33,7.48 -9.27,13.59l-4.79 7.43 -3.07 9.46c-28.31,87.21 -56.4,174.48 -83.68,262.02l-36.78 119.71 0 227.52c0.27,0.1 0.5,0.26 0.76,0.36 35.97,12.87 75.57,-5.85 88.45,-41.82 15.46,-43.18 30.53,-86.49 45.37,-129.87l43.8 -130.37c27.75,-83.7 54.73,-167.65 81.5,-251.67l5.28 -7.46c3.86,-5.26 7.9,-10.49 12.08,-15.52 8.37,-10.04 17.18,-19.5 26.18,-27.66 17.97,-16.34 36.37,-28.33 50,-31.63 6.89,-1.95 12.42,-2.38 18.47,-1.42l2.31 0.29 4.27 0.99c2.98,0.6 5.56,1.45 8.32,2.08 5.24,1.33 10.31,2.7 14.38,3.9 8.67,2.41 13.12,4.1 16.22,2.02 1.46,-0.85 3.34,-2.24 5.84,-2.09 1.08,0.06 2.57,0.53 3.81,1.32l1.98 1.31c0.34,0.23 0.7,0.42 1.06,0.57 0.2,0 0.38,0.11 0.65,0.05 0.36,-0.25 0.28,0.37 1.34,-1.29 -10.6,21.08 -2.1,46.76 18.98,57.36 21.08,10.6 46.76,2.11 57.36,-18.97l4.31 -6.84 2.95 -5.19c1.85,-3.41 3.44,-6.88 4.73,-10.48 2.63,-7.16 4.66,-14.8 5.33,-22.8 0.76,-7.99 0.64,-16.3 -0.56,-24.54z"/>
    <path class="fil15" d="M771.46 4095.97c-70.2,0 -127.65,57.44 -127.65,127.65l0 144.86 272.51 -272.51 -144.86 0z"/>
    <path class="fil15" d="M1146.25 4095.97l-130.06 0 -372.39 372.39 0 50.57c0,55.02 35.34,102.06 84.4,119.9l506.71 -506.71c-23.01,-22.31 -54.28,-36.14 -88.66,-36.14z"/>
    <path class="fil16" d="M1273.9 4223.62c0,-35.82 -15.01,-68.26 -38.98,-91.51l-506.71 506.71c13.54,4.92 28.06,7.75 43.25,7.75l165.98 0 336.46 -336.46 0 -86.49z"/>
    <path class="fil15" d="M937.44 4646.57l208.81 0c70.2,0 127.65,-57.44 127.65,-127.65l0 -208.81 -336.46 336.46z"/>
    <polygon class="fil16" points="916.32,4095.97 643.81,4368.48 643.81,4468.36 1016.2,4095.97 "/>
    <path class="fil15" d="M1722.02 4095.97c-70.2,0 -127.65,57.44 -127.65,127.65l0 151.75 279.4 -279.4 -151.75 0z"/>
    <polygon class="fil16" points="1873.78,4095.97 1594.38,4375.37 1594.38,4451.15 1949.55,4095.97 "/>
    <path class="fil15" d="M2096.82 4095.97l-147.27 0 -355.17 355.17 0 67.78c0,52.21 31.79,97.31 76.95,117.03l508.75 -508.75c-22.4,-19.39 -51.49,-31.23 -83.26,-31.23z"/>
    <path class="fil16" d="M2224.47 4223.62c0,-38.44 -17.29,-72.97 -44.39,-96.42l-508.75 508.75c15.57,6.8 32.7,10.62 50.7,10.62l131.55 0 370.9 -370.89 0 -52.06z"/>
    <path class="fil15" d="M1853.57 4646.57l243.25 0c70.21,0 127.65,-57.44 127.65,-127.65l0 -243.25 -370.9 370.89z"/>
    <line class="fil3 str3" x1="1146.25" y1="4646.57" x2="771.46" y2= "4646.57" />
    <path class="fil3 str3" d="M771.46 4646.57c-70.2,0 -127.65,-57.44 -127.65,-127.65"/>
    <line class="fil3 str3" x1="643.81" y1="4518.93" x2="643.81" y2= "4223.62" />
    <path class="fil3 str3" d="M643.81 4223.62c0,-70.2 57.44,-127.65 127.65,-127.65"/>
    <line class="fil3 str3" x1="771.46" y1="4095.97" x2="1146.25" y2= "4095.97" />
    <path class="fil3 str3" d="M1146.25 4095.97c70.2,0 127.65,57.44 127.65,127.65"/>
    <line class="fil3 str3" x1="1273.9" y1="4223.62" x2="1273.9" y2= "4518.93" />
    <path class="fil3 str3" d="M1273.9 4518.93c0,70.2 -57.44,127.65 -127.65,127.65"/>
    <line class="fil3 str3" x1="2096.82" y1="4646.57" x2="1722.02" y2= "4646.57" />
    <path class="fil3 str3" d="M1722.02 4646.57c-70.2,0 -127.65,-57.44 -127.65,-127.65"/>
    <line class="fil3 str3" x1="1594.38" y1="4518.93" x2="1594.38" y2= "4223.62" />
    <path class="fil3 str3" d="M1594.38 4223.62c0,-70.2 57.44,-127.65 127.65,-127.65"/>
    <line class="fil3 str3" x1="1722.02" y1="4095.97" x2="2096.82" y2= "4095.97" />
    <path class="fil3 str3" d="M2096.82 4095.97c70.21,0 127.65,57.44 127.65,127.65"/>
    <line class="fil3 str3" x1="2224.47" y1="4223.62" x2="2224.47" y2= "4518.93" />
    <path class="fil3 str3" d="M2224.47 4518.93c0,70.2 -57.44,127.65 -127.65,127.65"/>
    <path class="fil3 str3" d="M1273.9 4338.27c0,0 170.01,-183.87 320.48,0"/>
   </g>
   <g>
    <g>
     <path class="fil17" d="M4508.05 3858.04c35.53,27.46 91.62,59.12 167.19,66.59 36.05,3.57 70.19,-17.11 83.66,-50.74l32.97 -82.34c-180.55,14.97 -275.79,-110.44 -275.79,-110.44l-33.17 82.82c-13.41,33.49 -3.4,72.05 25.15,94.11z"/>
     <polygon class="fil18" points="5053.15,2557.92 4603.34,3681.14 4706.97,3722.64 5156.78,2599.42 "/>
     <polygon class="fil19" points="5253.73,2638.24 5156.78,2599.42 4706.97,3722.64 4803.92,3761.46 "/>
     <polygon class="fil20" points="4977.93,2527.8 4528.12,3651.02 4603.34,3681.14 5053.15,2557.92 "/>
     <path class="fil21" d="M4977.94 2527.8l234.28 -185.47 41.51 295.91c0,0 -147.46,34.05 -275.79,-110.44z"/>
     <path class="fil22" d="M5124.44 2411.82c36.83,23.94 72.62,36.72 103.59,43.23l-15.81 -112.72 -87.78 69.49z"/>
     <path class="fil22" d="M4500.78 3719.31c0,0 95.24,125.42 275.79,110.44l53.45 -133.47c-180.55,14.97 -275.79,-110.44 -275.79,-110.44l-53.45 133.47z"/>
    </g>
    <g>
     <path class="fil17" d="M4599.57 4048.6c27.23,35.71 73.22,80.79 144.3,107.54 33.91,12.76 72.22,1.61 93.93,-27.4l53.13 -71.02c-178.29,-32.2 -237.88,-177.97 -237.88,-177.97l-53.45 71.44c-21.61,28.88 -21.91,68.73 -0.03,97.41z"/>
     <polygon class="fil18" points="5462.17,2933.53 4737.34,3902.34 4826.73,3969.22 5551.55,3000.4 "/>
     <polygon class="fil19" points="5635.17,3062.96 5551.55,3000.4 4826.73,3969.22 4910.34,4031.77 "/>
     <polygon class="fil20" points="5397.29,2884.99 4672.47,3853.8 4737.34,3902.34 5462.17,2933.53 "/>
     <path class="fil21" d="M5397.29 2885l274.26 -118.62 -36.38 296.59c0,0 -151.25,-5.22 -237.88,-177.97z"/>
     <path class="fil22" d="M5568.79 2810.82c29.39,32.65 60.66,54.24 88.9,68.54l13.86 -112.98 -102.76 44.44z"/>
     <path class="fil22" d="M4628.4 3912.7c0,0 59.59,145.77 237.88,177.97l86.13 -115.12c-178.29,-32.2 -237.88,-177.97 -237.88,-177.97l-86.13 115.13z"/>
    </g>
   </g>
   <g>
    <g>
     <path class="fil23" d="M6319.62 4093.53l-93.11 346.44c-8.59,31.97 -41.77,51.09 -73.74,42.5 -31.96,-8.59 -51.09,-41.77 -42.5,-73.74l93.11 -346.44c8.59,-31.97 41.77,-51.09 73.74,-42.5 31.96,8.59 51.09,41.77 42.5,73.74z"/>
     <path class="fil24" d="M5240.78 3412.34c-304.13,-81.74 -617.15,104.68 -687.94,414.53 -65.19,285.35 106.18,576.53 387.19,658.41 148.48,43.26 299.78,21.98 424.69,-46.83 65.87,-36.28 142.79,-46.96 215.42,-27.44l66.08 17.76c121.39,32.63 246.24,-39.33 278.87,-160.72l47.55 -176.89c32.63,-121.39 -39.33,-246.24 -160.72,-278.87l-66.1 -17.77c-72.37,-19.45 -133.65,-66.86 -172.23,-131.11 -71.65,-119.31 -187.77,-212.1 -332.8,-251.08z"/>
     <path class="fil25" d="M5020.17 3398.41c40.33,0.51 81.24,5.93 121.98,16.88 128.18,34.45 230.81,116.46 294.15,221.91 34.1,56.79 88.26,98.69 152.23,115.88l58.42 15.7c107.29,28.83 170.89,139.19 142.05,246.48l-42.02 156.35c-28.84,107.29 -139.19,170.89 -246.48,142.05l-58.4 -15.69c-64.19,-17.25 -132.18,-7.82 -190.4,24.25 -110.41,60.82 -244.13,79.63 -375.37,41.39 -159.27,-46.41 -278.57,-168.93 -328.56,-317.35 36.27,202.87 184.13,378.36 392.26,439 148.48,43.26 299.78,21.98 424.69,-46.83 65.87,-36.28 142.79,-46.96 215.42,-27.44l66.07 17.76c121.39,32.63 246.24,-39.33 278.87,-160.72l47.55 -176.89c32.63,-121.39 -39.33,-246.24 -160.72,-278.87l-66.1 -17.77c-72.37,-19.45 -133.65,-66.86 -172.23,-131.11 -71.65,-119.31 -187.77,-212.1 -332.8,-251.08 -74.23,-19.95 -148.97,-23.82 -220.61,-13.93z"/>
     <line class="fil3 str4" x1="5865.64" y1="4291.8" x2="5213.78" y2= "4116.59" />
     <path class="fil3 str4" d="M5213.78 4116.59c0,0 80.2,2.19 63.64,-64.21 -16.57,-66.41 -181.13,-10.61 -93.27,15.59 87.86,26.2 187.63,-98.65 93.53,-162.66 -94.1,-64.01 -152.48,82.93 -15.22,53.99 137.26,-28.93 28.45,-129.64 28.45,-129.64"/>
     <line class="fil3 str4" x1="5290.9" y1="3829.65" x2="5942.76" y2= "4004.86" />
     <path class="fil26" d="M6095.9 3987.33l-116.21 432.36c-10.72,39.89 -52.13,63.76 -92.03,53.04 -39.89,-10.72 -63.76,-52.13 -53.04,-92.03l116.21 -432.36c10.72,-39.89 52.13,-63.76 92.03,-53.04 39.89,10.72 63.76,52.14 53.04,92.03z"/>
     <path class="fil26" d="M6154.72 4003.14l-116.21 432.36c-10.72,39.89 -52.14,63.76 -92.03,53.04 -39.89,-10.72 -63.76,-52.13 -53.04,-92.03l116.2 -432.36c10.72,-39.89 52.14,-63.76 92.03,-53.04 39.89,10.72 63.76,52.13 53.04,92.03z"/>
     <path class="fil26" d="M6213.54 4018.95l-116.21 432.36c-10.72,39.89 -52.13,63.76 -92.03,53.04 -39.89,-10.72 -63.76,-52.13 -53.04,-92.03l116.21 -432.36c10.72,-39.89 52.13,-63.76 92.03,-53.04 39.89,10.72 63.76,52.13 53.04,92.03z"/>
     <path class="fil26" d="M6272.35 4034.76l-116.21 432.36c-10.72,39.89 -52.13,63.76 -92.03,53.04 -39.89,-10.72 -63.76,-52.13 -53.04,-92.03l116.21 -432.36c10.72,-39.89 52.13,-63.76 92.03,-53.04 39.89,10.72 63.76,52.13 53.04,92.03z"/>
     <path class="fil23" d="M6040.31 3954.12l-125.37 466.45c-11.57,43.04 -56.24,68.78 -99.28,57.22 -43.04,-11.57 -68.79,-56.24 -57.22,-99.28l125.37 -466.45c11.57,-43.03 56.25,-68.78 99.28,-57.22 43.04,11.57 68.79,56.24 57.22,99.28z"/>
     <path class="fil27" d="M4974.67 3693.21c-13.74,51.13 -66.82,81.72 -117.95,67.98l-47.98 -12.9c-51.13,-13.74 -81.72,-66.82 -67.98,-117.95 13.74,-51.13 66.82,-81.72 117.95,-67.98l47.99 12.9c51.13,13.74 81.72,66.82 67.98,117.95z"/>
     <path class="fil27" d="M5162.39 3719.55c-10.42,38.76 -50.66,61.95 -89.42,51.53 -38.76,-10.42 -61.95,-50.66 -51.53,-89.42 10.42,-38.76 50.66,-61.95 89.42,-51.53 38.76,10.42 61.95,50.66 51.53,89.42z"/>
    </g>
    <path class="fil28" d="M6286.66 4023.42l-60.15 223.79c-8.59,31.97 -41.77,51.09 -73.74,42.5 -0.78,-0.21 -1.45,-0.6 -2.21,-0.84 -15.75,30.93 -51.66,47.89 -86.45,38.53 -10.46,-2.81 -19.79,-7.78 -27.71,-14.23 -10.09,1.62 -20.65,1.23 -31.11,-1.58 -10.46,-2.81 -19.79,-7.78 -27.71,-14.23 -10.09,1.61 -20.65,1.23 -31.11,-1.58 -10.46,-2.81 -19.79,-7.78 -27.71,-14.23 -10.09,1.61 -20.65,1.23 -31.11,-1.58 -3.44,-0.92 -6.71,-2.15 -9.9,-3.51 -18.12,10.68 -40.32,14.42 -62.11,8.56 -25.55,-6.87 -44.92,-25.44 -54.1,-48.38 -15.37,3.94 -31.19,6.43 -47.33,7.06 -22.37,0.87 -45.26,-1.57 -68.02,-7.69l-66.07 -17.76c-9.07,-2.44 -18.22,-4.41 -27.4,-5.92 -55.09,-9.03 -111.53,-1.4 -162.82,20.96 -8.55,3.73 -16.96,7.86 -25.19,12.4 -39.04,21.5 -80.65,38.36 -123.94,50.07 -17.32,4.68 -34.91,8.54 -52.71,11.53 -35.6,5.99 -72.05,8.54 -108.9,7.4 -18.42,-0.57 -36.94,-2.07 -55.51,-4.53 -27.84,-3.68 -55.78,-9.53 -83.63,-17.64 -11.58,-3.38 -22.91,-7.23 -34.11,-11.3 -2.85,-1.04 -5.68,-2.1 -8.5,-3.18 -10.56,-4.04 -20.98,-8.28 -31.16,-12.91 -0.55,-0.25 -1.11,-0.46 -1.65,-0.71 -10.73,-4.92 -21.18,-10.26 -31.49,-15.8 -2.46,-1.33 -4.9,-2.68 -7.34,-4.05 -9.54,-5.33 -18.93,-10.86 -28.08,-16.71 -0.69,-0.44 -1.4,-0.84 -2.09,-1.28 -9.88,-6.38 -19.46,-13.11 -28.86,-20.06 -1.95,-1.45 -3.87,-2.91 -5.8,-4.38 -8.74,-6.64 -17.3,-13.47 -25.59,-20.59 -0.57,-0.49 -1.16,-0.95 -1.73,-1.44 -9,-7.78 -17.67,-15.88 -26.13,-24.19 -1.35,-1.33 -2.68,-2.68 -4.02,-4.03 -8.01,-8.04 -15.81,-16.27 -23.3,-24.76 -0.31,-0.36 -0.64,-0.7 -0.96,-1.05 -8.04,-9.15 -15.72,-18.57 -23.14,-28.2 -0.76,-0.99 -1.49,-1.99 -2.25,-2.98 -7.19,-9.47 -14.11,-19.12 -20.68,-29.01 -0.09,-0.14 -0.19,-0.27 -0.28,-0.41 -6.91,-10.42 -13.44,-21.07 -19.65,-31.92 -0.28,-0.49 -0.55,-0.99 -0.83,-1.48 -31.48,-55.44 -53.51,-116.23 -64.75,-179.65 -23.52,131.24 2.23,262.31 64.75,372.41 0.28,0.49 0.54,0.99 0.83,1.48 6.2,10.85 12.74,21.5 19.65,31.92 0.09,0.13 0.19,0.27 0.28,0.4 6.57,9.9 13.49,19.55 20.68,29.01 0.76,0.99 1.49,2 2.25,2.98 7.41,9.63 15.1,19.06 23.14,28.2 0.31,0.36 0.64,0.7 0.96,1.05 7.49,8.49 15.29,16.71 23.3,24.76 1.34,1.34 2.67,2.7 4.02,4.03 8.46,8.31 17.13,16.41 26.13,24.19 0.56,0.49 1.16,0.95 1.73,1.44 8.3,7.12 16.85,13.95 25.59,20.59 1.93,1.46 3.85,2.94 5.8,4.38 9.4,6.95 18.98,13.69 28.86,20.07 0.68,0.44 1.4,0.84 2.09,1.28 9.15,5.85 18.54,11.38 28.08,16.71 2.44,1.36 4.88,2.72 7.34,4.05 10.31,5.55 20.76,10.89 31.49,15.8 0.54,0.25 1.11,0.46 1.65,0.71 10.19,4.63 20.61,8.88 31.16,12.91 2.82,1.08 5.65,2.14 8.5,3.18 11.2,4.07 22.53,7.93 34.11,11.3 27.84,8.11 55.78,13.96 83.63,17.64 18.57,2.46 37.09,3.96 55.51,4.53 36.85,1.15 73.3,-1.41 108.9,-7.4 17.81,-2.99 35.39,-6.85 52.71,-11.53 43.3,-11.7 84.91,-28.56 123.94,-50.07 8.23,-4.53 16.64,-8.67 25.19,-12.4 51.29,-22.36 107.73,-29.99 162.82,-20.96 9.18,1.51 18.33,3.48 27.4,5.92l66.07 17.76c22.76,6.12 45.64,8.56 68.02,7.69 16.13,-0.63 31.96,-3.12 47.33,-7.06 9.17,22.94 28.55,41.51 54.1,48.38 21.79,5.86 43.99,2.12 62.11,-8.56 3.19,1.36 6.46,2.59 9.9,3.51 10.46,2.81 21.02,3.19 31.11,1.58 7.92,6.45 17.24,11.42 27.71,14.23 10.46,2.81 21.02,3.19 31.11,1.58 7.92,6.45 17.24,11.42 27.71,14.23 10.46,2.81 21.02,3.19 31.11,1.58 7.92,6.45 17.24,11.42 27.71,14.23 34.78,9.35 70.7,-7.61 86.45,-38.53 0.76,0.23 1.43,0.63 2.21,0.84 31.97,8.59 65.15,-10.53 73.74,-42.5l93.11 -346.44c7.69,-28.61 -6.91,-58.05 -32.96,-70.11z"/>
   </g>
   <g>
    <g>
     <path class="fil29" d="M2797.76 3874.96c0,0 39.71,-52.95 185.32,-66.19 145.61,-13.24 1244.3,0 1244.3,0 0,0 66.19,13.24 105.9,66.19 39.71,52.95 410.36,529.49 410.36,529.49 0,0 52.95,66.19 0,105.9 -52.95,39.71 -2184.15,0 -2184.15,0 0,0 -119.13,13.24 -66.18,-79.42 52.95,-92.66 304.45,-555.97 304.45,-555.97z"/>
     <g>
      <polygon class="fil30" points="2559.48,4152.94 2559.48,4430.93 4650.97,4430.93 4650.97,4152.94 "/>
     </g>
     <path class="fil29" d="M2797.76 3570.51c0,0 39.71,-52.95 185.32,-66.19 145.61,-13.24 1244.3,0 1244.3,0 0,0 66.19,13.24 105.9,66.19 39.71,52.95 410.36,529.49 410.36,529.49 0,0 52.95,66.19 0,105.9 -52.95,39.71 -2184.15,0 -2184.15,0 0,0 -119.13,13.24 -66.18,-79.43 52.95,-92.66 304.45,-555.96 304.45,-555.96z"/>
     <g>
      <polygon class="fil31" points="4650.97,4258.84 2559.48,4258.84 2559.48,4245.6 4650.97,4245.6 "/>
      <polygon class="fil31" points="4650.97,4298.55 2559.48,4298.55 2559.48,4285.31 4650.97,4285.31 "/>
      <polygon class="fil31" points="4650.97,4338.27 2559.48,4338.27 2559.48,4325.03 4650.97,4325.03 "/>
      <polygon class="fil31" points="4650.97,4377.98 2559.48,4377.98 2559.48,4364.74 4650.97,4364.74 "/>
      <polygon class="fil31" points="4650.97,4417.69 2559.48,4417.69 2559.48,4404.45 4650.97,4404.45 "/>
     </g>
    </g>
    <g>
     <path class="fil32" d="M2805.75 3508.74c0,0 36.9,-49.2 172.18,-61.5 135.29,-12.3 1156.1,0 1156.1,0 0,0 61.49,12.3 98.39,61.5 36.9,49.19 381.27,491.96 381.27,491.96 0,0 49.19,61.49 0,98.39 -49.2,36.9 -2029.33,0 -2029.33,0 0,0 -110.69,12.3 -61.49,-73.8 49.2,-86.09 282.88,-516.56 282.88,-516.56z"/>
     <g>
      <polygon class="fil30" points="2584.37,3767.02 2584.37,4025.3 4527.61,4025.3 4527.61,3767.02 "/>
     </g>
     <path class="fil33" d="M2805.75 3225.86c0,0 36.9,-49.2 172.18,-61.49 135.29,-12.3 1156.1,0 1156.1,0 0,0 61.49,12.3 98.39,61.49 36.9,49.2 381.27,491.96 381.27,491.96 0,0 49.19,61.49 0,98.39 -49.2,36.9 -2029.33,0 -2029.33,0 0,0 -110.69,12.3 -61.49,-73.79 49.2,-86.1 282.88,-516.56 282.88,-516.56z"/>
     <g>
      <polygon class="fil31" points="4527.61,3865.41 2584.37,3865.41 2584.37,3853.11 4527.61,3853.11 "/>
      <polygon class="fil31" points="4527.61,3902.31 2584.37,3902.31 2584.37,3890.01 4527.61,3890.01 "/>
      <polygon class="fil31" points="4527.61,3939.2 2584.37,3939.2 2584.37,3926.91 4527.61,3926.91 "/>
      <polygon class="fil31" points="4527.61,3976.1 2584.37,3976.1 2584.37,3963.8 4527.61,3963.8 "/>
      <polygon class="fil31" points="4527.61,4013 2584.37,4013 2584.37,4000.7 4527.61,4000.7 "/>
     </g>
    </g>
   </g>
   <g>
    <path class="fil17" d="M4212.58 4723.3c14.16,-54.16 23.11,-133.95 -5.2,-224.28 -13.5,-43.09 -53.88,-72.16 -99.03,-71.2l-110.54 2.35c105.28,199.81 7.88,370.26 7.88,370.26l111.19 -2.37c44.95,-0.96 84.31,-31.26 95.68,-74.76z"/>
    <polygon class="fil18" points="2455.2,4732.41 3963.16,4700.31 3960.2,4561.18 2452.24,4593.28 "/>
    <polygon class="fil19" points="2449.47,4463.14 2452.24,4593.28 3960.2,4561.18 3957.43,4431.03 "/>
    <polygon class="fil20" points="2457.35,4833.39 3965.31,4801.29 3963.16,4700.31 2455.2,4732.41 "/>
    <path class="fil21" d="M2457.35 4833.39l-327.08 -178.25 319.19 -192.01c0,0 111.01,152.54 7.88,370.26z"/>
    <path class="fil22" d="M2252.82 4721.93c9.49,-53.93 6.69,-101.22 -0.95,-139.93l-121.59 73.14 122.54 66.79z"/>
    <path class="fil22" d="M4056.99 4799.34c0,0 97.4,-170.45 -7.88,-370.26l-179.19 3.81c105.28,199.81 7.88,370.26 7.88,370.26l179.19 -3.82z"/>
   </g>
   <g>
    <g>
     <path class="fil34" d="M4241.66 3438.39c0,119 -306.81,215.47 -685.27,215.47 -378.46,0 -685.27,-96.47 -685.27,-215.47 0,-119 306.81,-215.47 685.27,-215.47 378.46,0 685.27,96.47 685.27,215.47z"/>
     <path class="fil31" d="M4241.66 3064.91c0,100.48 -306.81,181.93 -685.27,181.93 -378.46,0 -685.27,-81.45 -685.27,-181.93 0,-100.48 306.81,-181.93 685.27,-181.93 378.46,0 685.27,81.45 685.27,181.93z"/>
     <polygon class="fil34" points="4241.66,3064.91 4241.66,3438.39 2871.12,3438.39 2871.12,3064.91 "/>
     <path class="fil35" d="M3610.97 2713.18c0,0 -1334.15,339.6 -1322.03,339.6 12.13,0 1212.87,412.38 1273.52,424.51 60.64,12.13 1200.74,-351.74 1249.26,-375.99 48.52,-24.26 -1152.23,-400.24 -1200.75,-388.11z"/>
     <polygon class="fil35" points="4811.71,3101.3 4811.71,3064.91 2288.94,3016.39 2288.94,3052.78 "/>
     <path class="fil22" d="M3610.97 2676.79c0,0 -1334.15,339.6 -1322.03,339.6 12.13,0 1212.87,412.38 1273.52,424.51 60.64,12.13 1200.74,-351.73 1249.26,-375.99 48.52,-24.26 -1152.23,-400.24 -1200.75,-388.11z"/>
    </g>
    <path class="fil34" d="M3551 3021.74l0 53.25 -1223.35 -10.08c0,0 -34.38,5.24 -47.24,53.49 -12.87,48.25 8.54,273.99 8.54,273.99 0,0 -37.89,47.18 -60.12,-18.28 -22.23,-65.46 0,-309.2 0,-309.2 0,0 14.06,-49.23 77.96,-43.17 63.91,6.06 1244.22,0 1244.22,0z"/>
    <path class="fil34" d="M2227.47 3408.84c0,0 -55.06,43.36 -27.96,106.76 27.1,63.4 27.1,63.4 27.1,63.4l0.86 -19.27 32.8 32.88 10.69 -32.88 14.42 43.17c0,0 97.06,-106.08 -5.05,-202.79 0,0 -32.12,-15.23 -52.87,8.74z"/>
    <path class="fil20" d="M3670.83 3045.46c0,16.05 -39.56,29.07 -88.36,29.07 -48.8,0 -88.36,-13.01 -88.36,-29.07 0,-16.05 39.56,-29.07 88.36,-29.07 48.8,0 88.36,13.01 88.36,29.07z"/>
    <path class="fil20" d="M2289.77 3400.1c0,19.56 -15.85,35.41 -35.41,35.41 -19.56,0 -35.41,-15.85 -35.41,-35.41 0,-19.56 15.85,-35.41 35.41,-35.41 19.56,0 35.41,15.86 35.41,35.41z"/>
   </g>
   <g>
    <path class="fil36" d="M3415.6 1490.24c0,0 3.88,31.41 -35.74,71.52 -39.64,40.11 -54.54,194.75 133.82,138.18 188.36,-56.57 41.16,-259.6 -98.08,-209.7z"/>
    <path class="fil32" d="M3421.91 1704.11c0,0 82.36,-32.99 154.15,-19.46 0,0 30.88,97.36 -16.42,130.5 -47.3,33.15 -158.51,-9.45 -137.73,-111.04z"/>
    <g>
     <g>
      <path class="fil23" d="M2873.31 777.88l-135.69 33.06c-12.52,3.05 -25.25,-4.7 -28.3,-17.22 -3.05,-12.52 4.7,-25.26 17.21,-28.31l135.69 -33.06c12.52,-3.05 25.25,4.7 28.31,17.22 3.05,12.52 -4.7,25.26 -17.22,28.31z"/>
      <path class="fil37" d="M2903.93 282.1c-29.02,-119.12 -151.24,-191.09 -270.27,-157.26 -109.61,31.15 -176.94,144.15 -152.29,255.4 13.02,58.78 48.6,106.45 95.47,136.21 24.72,15.7 42.76,39.96 49.68,68.41l6.31 25.88c11.58,47.55 59.51,76.7 107.06,65.12l69.29 -16.88c47.54,-11.58 76.7,-59.51 65.12,-107.06l-6.31 -25.89c-6.91,-28.35 -2.19,-58.14 12.52,-83.34 27.32,-46.79 37.26,-103.8 23.43,-160.6z"/>
      <path class="fil20" d="M2867.4 204.18c7.37,13.87 13.18,28.85 17.07,44.8 12.23,50.21 3.44,100.59 -20.7,141.95 -13.01,22.27 -17.17,48.6 -11.07,73.66l5.57 22.88c10.24,42.02 -15.53,84.39 -57.55,94.62l-61.24 14.92c-42.02,10.23 -84.39,-15.53 -94.62,-57.55l-5.57 -22.87c-6.12,-25.14 -22.07,-46.59 -43.92,-60.46 -41.43,-26.31 -72.87,-68.44 -84.38,-120.4 -13.97,-63.06 5.53,-126.72 46.84,-171.56 -62.46,50.35 -94.7,133.67 -76.45,216.07 13.02,58.78 48.6,106.45 95.47,136.21 24.72,15.7 42.76,39.96 49.68,68.41l6.31 25.88c11.58,47.55 59.51,76.7 107.06,65.12l69.29 -16.88c47.54,-11.58 76.7,-59.51 65.12,-107.06l-6.31 -25.89c-6.91,-28.35 -2.19,-58.14 12.52,-83.34 27.32,-46.79 37.26,-103.8 23.43,-160.6 -7.08,-29.07 -19.75,-55.31 -36.54,-77.92z"/>
      <line class="fil3 str5" x1="2720.66" y1="660.01" x2="2658.47" y2= "404.69" />
      <path class="fil3 str5" d="M2658.47 404.69c0,0 14.26,27.79 33.83,9.71 19.57,-18.08 -30.28,-63.82 -22.78,-28.93 7.5,34.9 68.79,45.59 73.03,1.49 4.24,-44.11 -56.85,-36.54 -21.28,4.9 35.57,41.44 49.58,-14.55 49.58,-14.55"/>
      <line class="fil3 str5" x1="2770.85" y1="377.31" x2="2833.05" y2= "632.63" />
      <path class="fil26" d="M2867.69 681.63l-169.35 41.25c-15.62,3.81 -31.52,-5.86 -35.33,-21.49 -3.81,-15.62 5.87,-31.52 21.49,-35.33l169.35 -41.25c15.62,-3.81 31.52,5.86 35.33,21.49 3.81,15.62 -5.86,31.52 -21.49,35.33z"/>
      <path class="fil26" d="M2873.31 704.67l-169.35 41.25c-15.62,3.81 -31.52,-5.86 -35.33,-21.49 -3.81,-15.62 5.86,-31.52 21.49,-35.33l169.35 -41.25c15.62,-3.81 31.52,5.86 35.33,21.49 3.81,15.63 -5.86,31.53 -21.49,35.33z"/>
      <path class="fil26" d="M2878.92 727.7l-169.35 41.25c-15.62,3.81 -31.52,-5.86 -35.33,-21.49 -3.81,-15.62 5.86,-31.52 21.49,-35.33l169.35 -41.25c15.62,-3.81 31.52,5.86 35.33,21.49 3.81,15.62 -5.86,31.52 -21.49,35.33z"/>
      <path class="fil26" d="M2884.53 750.74l-169.35 41.25c-15.63,3.81 -31.53,-5.86 -35.33,-21.49 -3.81,-15.63 5.86,-31.53 21.49,-35.33l169.35 -41.25c15.62,-3.81 31.52,5.86 35.33,21.49 3.81,15.62 -5.86,31.52 -21.49,35.33z"/>
      <path class="fil23" d="M2868.63 656.43l-182.69 44.5c-16.86,4.1 -34.01,-6.32 -38.12,-23.18 -4.1,-16.85 6.33,-34.01 23.18,-38.12l182.69 -44.5c16.86,-4.1 34.01,6.33 38.12,23.18 4.1,16.86 -6.32,34.01 -23.18,38.12z"/>
      <path class="fil38" d="M2758.25 243.82c-20.03,4.88 -40.41,-7.51 -45.28,-27.54l-4.58 -18.79c-4.88,-20.02 7.51,-40.41 27.54,-45.28 20.02,-4.88 40.4,7.51 45.28,27.54l4.58 18.79c4.88,20.03 -7.51,40.41 -27.54,45.28z"/>
      <path class="fil38" d="M2784.39 312.83c-15.18,3.7 -30.63,-5.7 -34.33,-20.88 -3.7,-15.18 5.7,-30.63 20.88,-34.32 15.18,-3.7 30.63,5.69 34.32,20.88 3.7,15.19 -5.69,30.63 -20.88,34.33z"/>
     </g>
     <path class="fil28" d="M2891.08 753.5l-87.65 21.35c-12.52,3.05 -25.26,-4.7 -28.31,-17.22 -0.07,-0.3 -0.07,-0.6 -0.13,-0.91 -13.5,0.41 -26.02,-8.68 -29.33,-22.3 -1,-4.1 -1.05,-8.21 -0.33,-12.12 -2.44,-3.14 -4.28,-6.82 -5.28,-10.91 -1,-4.1 -1.05,-8.21 -0.33,-12.12 -2.44,-3.14 -4.28,-6.82 -5.28,-10.92 -1,-4.1 -1.05,-8.21 -0.33,-12.12 -2.44,-3.14 -4.28,-6.82 -5.28,-10.91 -0.33,-1.35 -0.52,-2.7 -0.66,-4.04 -7.04,-4.19 -12.47,-11.06 -14.54,-19.6 -2.44,-10.01 0.27,-20.1 6.39,-27.52 -4.22,-4.51 -8.04,-9.44 -11.27,-14.83 -4.49,-7.48 -7.94,-15.75 -10.11,-24.66l-6.3 -25.88c-0.87,-3.55 -1.91,-7.05 -3.11,-10.46 -7.23,-20.5 -20.4,-38.34 -37.63,-51.66 -2.87,-2.22 -5.86,-4.32 -8.95,-6.28 -14.65,-9.3 -28.19,-20.35 -40.29,-32.94 -4.84,-5.04 -9.44,-10.32 -13.8,-15.84 -8.71,-11.03 -16.4,-23 -22.91,-35.79 -3.25,-6.4 -6.21,-13 -8.84,-19.8 -3.95,-10.19 -7.18,-20.83 -9.63,-31.85 -1.01,-4.59 -1.82,-9.17 -2.52,-13.76 -0.18,-1.16 -0.35,-2.33 -0.51,-3.5 -0.6,-4.36 -1.09,-8.71 -1.42,-13.05 -0.02,-0.23 -0.05,-0.47 -0.07,-0.7 -0.33,-4.58 -0.46,-9.15 -0.5,-13.71 -0.01,-1.09 0,-2.18 0.01,-3.26 0.03,-4.26 0.17,-8.5 0.45,-12.71 0.02,-0.32 0.03,-0.63 0.05,-0.95 0.33,-4.57 0.83,-9.1 1.45,-13.6 0.13,-0.94 0.27,-1.87 0.41,-2.8 0.63,-4.23 1.36,-8.43 2.24,-12.59 0.06,-0.29 0.1,-0.57 0.17,-0.86 0.97,-4.53 2.11,-9.01 3.37,-13.45 0.2,-0.71 0.42,-1.42 0.63,-2.13 1.24,-4.24 2.59,-8.44 4.09,-12.59 0.07,-0.17 0.12,-0.35 0.18,-0.52 1.62,-4.46 3.4,-8.84 5.3,-13.18 0.2,-0.44 0.4,-0.88 0.6,-1.33 1.89,-4.22 3.88,-8.39 6.03,-12.49 0.03,-0.06 0.06,-0.11 0.09,-0.17 2.26,-4.31 4.67,-8.53 7.21,-12.68 0.12,-0.19 0.23,-0.37 0.35,-0.56 13.04,-21.12 29.66,-40.02 49.21,-55.73 -49.2,16.53 -89.13,49.85 -115.01,91.8 -0.12,0.19 -0.24,0.37 -0.35,0.56 -2.54,4.15 -4.96,8.37 -7.22,12.68 -0.03,0.06 -0.06,0.12 -0.09,0.17 -2.15,4.09 -4.14,8.26 -6.03,12.49 -0.2,0.44 -0.4,0.88 -0.6,1.32 -1.9,4.34 -3.68,8.72 -5.3,13.18 -0.06,0.17 -0.12,0.35 -0.18,0.52 -1.49,4.15 -2.85,8.35 -4.09,12.59 -0.21,0.71 -0.43,1.41 -0.63,2.12 -1.26,4.44 -2.4,8.92 -3.37,13.45 -0.06,0.29 -0.11,0.57 -0.17,0.86 -0.88,4.16 -1.61,8.37 -2.24,12.59 -0.14,0.93 -0.28,1.87 -0.41,2.8 -0.61,4.51 -1.12,9.04 -1.45,13.6 -0.02,0.32 -0.03,0.64 -0.05,0.96 -0.29,4.22 -0.42,8.46 -0.45,12.71 -0.01,1.09 -0.02,2.18 -0.01,3.27 0.03,4.56 0.17,9.12 0.5,13.7 0.02,0.23 0.05,0.46 0.07,0.7 0.33,4.34 0.83,8.7 1.42,13.05 0.16,1.17 0.33,2.33 0.51,3.5 0.71,4.59 1.51,9.17 2.52,13.76 2.44,11.02 5.68,21.65 9.63,31.85 2.64,6.8 5.59,13.4 8.84,19.8 6.5,12.79 14.2,24.76 22.91,35.79 4.35,5.52 8.96,10.8 13.8,15.83 12.1,12.59 25.64,23.64 40.29,32.94 3.09,1.96 6.07,4.06 8.95,6.28 17.23,13.33 30.4,31.16 37.63,51.66 1.21,3.42 2.25,6.91 3.11,10.46l6.31 25.88c2.17,8.92 5.62,17.18 10.1,24.66 3.24,5.39 7.05,10.33 11.27,14.83 -6.11,7.42 -8.83,17.51 -6.39,27.52 2.08,8.54 7.51,15.41 14.55,19.6 0.13,1.35 0.33,2.69 0.65,4.04 1,4.1 2.85,7.77 5.29,10.92 -0.72,3.91 -0.67,8.02 0.33,12.12 1,4.1 2.85,7.78 5.29,10.92 -0.72,3.91 -0.67,8.02 0.33,12.12 1,4.1 2.85,7.77 5.29,10.92 -0.72,3.91 -0.67,8.02 0.33,12.12 3.32,13.62 15.83,22.71 29.34,22.3 0.06,0.3 0.05,0.61 0.13,0.91 3.05,12.52 15.79,20.27 28.3,17.21l135.69 -33.05c11.2,-2.73 18.52,-13.23 17.76,-24.37z"/>
    </g>
    <path class="fil17" d="M3488.07 2737.44c0,0 -54.39,77.84 -40.86,91.38 13.53,13.54 71.77,-31.44 88.33,-53.46 16.55,-22.02 -2.25,-53.09 -2.25,-53.09l-45.22 15.17z"/>
    <path class="fil21" d="M3456.21 2324.21c0,0 14.9,195.86 21.28,219.72 6.39,23.86 4.26,185.62 12.77,204.77 8.51,19.16 46.82,-10.64 46.82,-23.4 0,-12.77 23.41,-120.91 25.54,-147.72 2.13,-26.81 31.93,-180.05 34.06,-222.62 2.13,-42.57 -91.52,-101.93 -140.47,-30.75z"/>
    <path class="fil17" d="M3890.52 2566.96c0,0 40.63,85.82 59.1,80.79 18.47,-5.03 8.28,-77.91 -2.63,-103.21 -10.91,-25.3 -47.22,-24.38 -47.22,-24.38l-9.24 46.79z"/>
    <g>
     <path class="fil21" d="M3741.53 2241.08c-0.76,70.37 -0.49,115.62 22.43,180.49 10.78,30.49 130.97,88.47 154.26,116.01 23.29,27.54 -3,39.82 -37.31,32.87 -34.32,-6.95 -140.2,-58.87 -178.32,-85.79 -30.54,-21.56 -87.34,-108.49 -86.5,-182.83 0.83,-74.33 71.98,-100.18 125.44,-60.75z"/>
    </g>
    <path class="fil22" d="M3423.91 1712.06c0,0 -142.98,-30.24 -161.65,-53.9 -18.67,-23.66 -103.17,-134.1 -130.36,-132.15 -27.2,1.95 -35.1,16.96 -34.79,34.93 0.31,17.97 113.72,155.55 125,167.23 11.28,11.68 162.28,106.68 183.08,100.05 20.8,-6.63 49.71,-109.08 18.73,-116.16z"/>
    <path class="fil21" d="M3818.83 2047.89c0,0 -14.89,49.29 2.22,58.11 17.1,8.82 25.77,-0.98 25.77,-0.98 0,0 28.2,24.71 38.42,2.75 10.21,-21.96 -1.96,-70.43 -41.3,-78.4 0,0 -20.85,-0.1 -25.11,18.53z"/>
    <path class="fil22" d="M3579.12 1809.51c0,0 133.32,59.87 146.55,86.94 13.23,27.07 72.4,152.92 99.39,156.77 26.99,3.86 37.89,-9.13 41.4,-26.76 3.51,-17.63 -78.16,-176.11 -86.71,-189.92 -8.54,-13.8 -135.98,-138.65 -157.71,-136.59 -21.73,2.07 -71.7,96.07 -42.93,109.55z"/>
    <path class="fil22" d="M3379.85 1739.06c0,0 9.19,186.12 39.5,222.3 0,0 11.98,26.87 12.21,96.69 0.23,69.81 -36.41,187.4 4.34,306.3 0,0 350.58,27.03 352.03,-97.48 0.93,-79.96 -52.52,-184.54 -100.35,-242.61 -40.97,-49.76 -19.93,-67.72 -33.34,-128.84 -0.07,-0.33 -0.14,-0.66 -0.21,-0.98 -6.94,-32.3 -12.81,-169.4 -23.61,-187.01 -10.8,-17.61 -54.36,-22.78 -54.36,-22.78 0,0 -32.17,102 -64.55,100.43 -32.38,-1.56 -89.6,-80.97 -89.6,-80.97 0,0 -34.14,7.09 -42.06,34.95z"/>
    <path class="fil21" d="M3125.97 1529.45c0,0 19.33,-56.19 0,-67.11 -19.34,-10.92 -29.77,0 -29.77,0 0,0 -31.44,-29.73 -44.18,-4.85 -12.74,24.88 -0.83,81.31 44.18,92.24 0,0 24.04,1.03 29.77,-20.27z"/>
    <path class="fil21" d="M3482.34 1701.14l0 -30.09c0,0 -63.78,-2.49 -67.52,-48.65 -3.74,-46.16 0,-23.31 0,-23.31 0,0 -22.45,-7.95 -22.45,-15.83 0,-7.87 27.9,-31.57 27.9,-31.57 0,0 14.51,-92.7 86.86,-96.44 72.35,-3.74 102.29,57.38 99.8,107.28 -2.5,49.9 -38.67,96.05 -53.64,98.55 -14.97,2.49 -4.99,40.07 -4.99,40.07 0,0 -44.73,33.54 -65.96,0z"/>
    <path class="fil17" d="M3494.69 1417.8c0,0 -109.23,19.15 -83.16,66.16 26.07,47.01 102.22,50.49 102.22,50.49 0,0 2.24,43.53 29.2,55.71 0,0 24.32,64.42 -29.2,132.32 -53.52,67.9 108.98,95.76 139.16,-59.19 30.18,-154.95 -25.54,-209.27 -74.29,-220.42 -48.75,-11.15 -59.19,0 -59.19,0 0,0 -10.21,-28.28 -24.74,-25.07z"/>
    <path class="fil3 str6" d="M2779.8 800.65c0,0 44.63,565.61 307.16,687.58 262.53,121.97 309.58,305.21 152.05,390.08"/>
   </g>
   <g>
    <path class="fil39" d="M2631.72 2622.48c-10.63,10.28 -17.03,24.13 -19.23,38.76 -7.01,46.6 -27.44,176.04 -38.67,178.03 -13.7,2.43 -172.84,73.04 -172.84,77.25 0,4.22 3.87,42.16 63.06,29.51 59.19,-12.65 167.44,-55.86 175.49,-66.39 8.05,-10.54 41.67,-172.83 35.93,-206.56 -4.88,-28.66 -15.31,-78.08 -43.74,-50.6z"/>
    <g>
     <path class="fil21" d="M2370.33 3220.28c0,0 -10.29,54.83 -21.07,62.99 -10.78,8.16 -38.79,-1.54 -39.87,-22.01 -1.08,-20.47 20.47,-82.96 20.47,-82.96 0,0 31.36,-0.07 40.46,41.98z"/>
     <path class="fil40" d="M2674.93 2922.8c0,0 -283.05,-14.76 -307.48,22.55 -24.42,37.31 -21.55,76.6 87.64,73.26 109.18,-3.34 228.33,14.99 242.74,-24.13 14.41,-39.12 -22.9,-71.68 -22.9,-71.68z"/>
     <path class="fil40" d="M2387.47 2942.63c0,0 -18.78,-6.62 -31.31,34.99 -12.52,41.61 -57.88,240.63 -53.94,244.94 3.94,4.31 53.06,28.73 85.25,24.42 0,0 42.24,-185.24 49.42,-216.88 7.18,-31.65 -6.91,-93.03 -49.42,-87.47z"/>
     <g>
      <g>
       <path class="fil17" d="M2362.36 3265.86c0,0 2.87,32.7 -25.28,61.21 -28.15,28.51 -161.32,-55.15 -166.74,-98 -5.42,-42.85 135.2,6.67 135.2,6.67 0,0 17.94,30.44 56.81,30.12z"/>
       <path class="fil41" d="M2266.32 3251.41c-48.61,-39.96 -86.43,-36.48 -89.34,-35.92 -4.89,2.75 -7.45,7.09 -6.63,13.58 5.02,39.77 120.02,114.61 159.06,102.41 20.44,-16.61 -14.33,-39.98 -63.08,-80.07z"/>
      </g>
     </g>
    </g>
    <path class="fil17" d="M2732.64 2575.66c55.07,-15.12 110.66,23.32 116.4,80.14 10.45,103.53 17.04,278.49 -48.04,336.36 -94.6,84.11 -210.82,57.25 -210.82,57.25 0,0 43.48,-358.21 41.33,-413.29 -0.63,-16.09 34.48,-42.16 101.14,-60.46z"/>
    <g>
     <path class="fil21" d="M2500.43 3277.63c0,0 -10.29,54.83 -21.07,62.99 -10.78,8.16 -38.79,-1.54 -39.87,-22.01 -1.08,-20.47 20.47,-82.96 20.47,-82.96 0,0 31.36,-0.07 40.46,41.98z"/>
     <path class="fil32" d="M2804.29 2978.19c0,0 8.93,107.33 -104.85,103.02 -113.78,-4.31 -211.46,1.99 -211.46,-20.55 0,-22.55 -22.81,-76.16 97.77,-91.01 120.59,-14.86 218.53,8.54 218.53,8.54z"/>
     <path class="fil32" d="M2517.57 2988.03c0,0 -18.78,-6.62 -31.31,34.99 -12.52,41.62 -57.88,240.64 -53.94,244.94 3.94,4.31 53.06,28.73 85.25,24.42 0,0 42.24,-185.24 49.42,-216.88 7.18,-31.64 -6.91,-93.02 -49.42,-87.47z"/>
     <g>
      <g>
       <path class="fil17" d="M2494.3 3325.18c0,0 2.87,32.7 -25.28,61.21 -28.15,28.51 -161.32,-55.15 -166.74,-98 -5.41,-42.85 135.2,6.67 135.2,6.67 0,0 17.94,30.44 56.81,30.12z"/>
       <path class="fil41" d="M2398.26 3310.73c-48.61,-39.96 -86.43,-36.48 -89.34,-35.92 -4.88,2.75 -7.45,7.09 -6.63,13.58 5.03,39.76 120.02,114.61 159.06,102.41 20.44,-16.61 -14.33,-39.99 -63.08,-80.07z"/>
      </g>
     </g>
    </g>
    <path class="fil21" d="M2692.15 2610.66l-13.96 -34.34c0,0 -73.95,26.75 -99.64,-24.19 -25.69,-50.94 -26.6,-83.24 -26.6,-83.24 0,0 -26.47,-112.53 54.38,-150.39 80.84,-37.85 143.38,18.02 163.69,76.12 20.31,58.11 0.45,127.58 -15.48,137.37 -15.93,9.8 12.9,48.05 12.9,48.05 0,0 -35.48,59.04 -75.28,30.61z"/>
    <path class="fil22" d="M2679.22 2381.15c0,0 -92.74,55.86 -147.54,35.84 -54.8,-20.02 -49.53,-79.04 -24.24,-94.85 25.29,-15.81 33.72,0 33.72,0 0,0 29.93,-22.26 37.94,-7.02 0,0 84.31,-31.97 100.12,-24.59 15.81,7.38 15.81,7.38 15.81,7.38 0,0 -20.02,-17.91 -10.54,-20.02 9.49,-2.11 22.13,12.65 22.13,12.65 0,0 35.83,-2.11 32.67,5.27 -3.16,7.38 -16.36,10.36 -16.36,10.36 0,0 49.71,23.37 55.7,99.25 5.98,75.88 0,90.63 0,90.63 0,0 -1.98,71.95 -28.56,49.15 -26.58,-22.8 1.87,-56.53 1.87,-63.91 0,-7.38 10.54,-41.1 -3.16,-53.75 -13.7,-12.65 -25.84,10.54 -25.84,10.54 0,0 12.14,33.72 6.87,36.89 -5.27,3.16 -21.08,-2.17 -23.19,-12.68 -2.11,-10.51 -3.16,-32.64 -5.27,-36.85 -2.11,-4.22 -21.08,-12.65 -23.19,-17.92 -2.11,-5.27 1.06,-26.35 1.06,-26.35z"/>
    <polygon class="fil23" points="2590.29,3001.89 2759.56,2948.61 2573.2,2900.72 2356.08,2943.25 "/>
    <path class="fil41" d="M2795.15 2618.4c0,0 -27.4,192.09 -41.1,194.52 -13.7,2.43 -172.84,73.04 -172.84,77.26 0,4.22 3.88,42.16 63.07,29.51 59.18,-12.65 167.44,-55.86 175.49,-66.4 8.05,-10.54 41.67,-172.83 35.92,-206.56 -5.74,-33.72 -57.7,-47.55 -60.54,-28.33z"/>
    <path class="fil21" d="M2590.18 2892.29c0,0 -53.12,-2.33 -62.13,17.28 -9.02,19.61 4.15,39.8 31.07,39.04 26.92,-0.76 62.15,-24.7 58.98,-33.13 -3.16,-8.43 -18.95,-21.08 -27.92,-23.19z"/>
    <polygon class="fil26" points="2317.54,2739.47 2574.02,2795.53 2590.29,3001.89 2356.08,2943.25 "/>
   </g>
   <g>
    <path class="fil21" d="M619.42 3767.63l-32.38 28.21c0,0 -47.53,1.19 -64.16,5.94 -16.64,4.76 -47.53,22.58 -42.78,28.52 0,0 -22.57,23.76 -16.63,28.52 0,0 3.56,16.63 11.88,16.63 0,0 7.13,11.88 22.57,9.51 0,0 24.26,-17.83 43.02,-17.83 18.77,0 29.46,1.19 29.46,1.19 0,0 -27.33,5.38 -35.64,16.95 -8.32,11.57 -8.32,18.7 -3.57,21.07 4.76,2.38 24.95,-14.26 41.59,-14.26 16.64,0 46.93,-20.2 46.64,-38.03 -0.3,-17.82 36.54,-43.96 46.04,-58.22 9.5,-14.26 -28.75,-43.29 -46.04,-28.21z"/>
    <path class="fil19" d="M1208.33 3655.86c0,0 36.07,123.16 56.62,128.91 20.55,5.74 82.38,-157.06 82.38,-157.06 0,0 13.7,-20.99 63.93,0 50.23,20.99 -105.21,275.93 -128.04,276.45 -22.83,0.51 -146.3,-59.25 -136.99,-104.84 9.32,-45.6 30.42,-143.13 62.1,-143.45z"/>
    <g>
     <path class="fil21" d="M1011.33 4653.87c0,0 -7.03,47.68 4.9,65.04 11.94,17.36 28.63,8.33 34.06,-9.4 5.43,-17.73 4.91,-67.75 4.91,-67.75 0,0 -30.59,-9.26 -43.87,12.11z"/>
     <g>
      <g>
       <path class="fil40" d="M1060.83 4696.35c7.33,-2.84 15.3,-3.46 22.68,-0.76 23.75,8.71 68.64,24.77 85.72,28.18 23.7,4.74 63.53,22.76 65.42,45.51 1.9,22.76 -151.57,12.33 -174.87,11.38 -23.3,-0.95 -59.32,2.85 -61.22,-12.33 -1.27,-10.21 -0.83,-42.74 -0.41,-62.93 0.17,-8.3 8.04,-14.18 16.08,-12.13 14.35,3.67 35.07,7.54 46.6,3.07z"/>
      </g>
     </g>
    </g>
    <g>
     <path class="fil21" d="M707.51 4641.76c0,0 -19.47,44.09 -12.58,64 6.89,19.91 25.38,15.65 35.33,0 9.96,-15.64 22.76,-64 22.76,-64 0,0 -27.02,-17.07 -45.51,0z"/>
     <g>
      <g>
       <path class="fil40" d="M733.09 4691.48c7.33,-2.84 15.3,-3.46 22.68,-0.76 23.75,8.71 68.64,24.76 85.72,28.18 23.7,4.74 63.52,22.76 65.42,45.51 1.89,22.76 -151.58,12.33 -174.87,11.38 -23.3,-0.95 -59.33,2.85 -61.22,-12.32 -1.28,-10.21 -0.84,-42.74 -0.41,-62.93 0.17,-8.29 8.04,-14.18 16.07,-12.12 14.36,3.67 35.08,7.53 46.6,3.07z"/>
      </g>
     </g>
    </g>
    <g>
     <path class="fil41" d="M802.49 3935.03c0,0 13.64,87.24 49.69,120.33 0,0 208.37,229.25 219.17,273.48 10.8,44.23 -67.58,334.08 -68.38,337.15 -0.8,3.08 57.51,6.23 63.54,-21.21 6.03,-27.44 101.16,-325.84 94.51,-347.69 -6.65,-21.85 -179,-280.79 -179,-280.79 0,0 8.49,-84.05 -8.03,-108.3 -16.52,-24.25 -171.5,27.03 -171.5,27.03z"/>
     <path class="fil17" d="M981.27 3916.53c0,0 -177.41,9.87 -178.78,36.85l36.66 451.76 -144.23 246.99c0,0 22.54,26.96 56.67,13.89 34.42,-44.56 177.32,-222.21 189.71,-257.06 12.38,-34.85 -17.44,-342.29 -17.44,-342.29 0,0 58.26,-35.21 59.3,-65.01 1.03,-29.8 -1.89,-85.14 -1.89,-85.14z"/>
    </g>
    <path class="fil42" d="M1119.05 3571.03c0,0 -128.79,-37.52 -147.2,-8.77 -18.42,28.75 -148.68,357.87 -129.32,391.78 19.36,33.91 118.87,92.01 143.54,73.7 24.67,-18.3 213,-308.41 223.49,-335.32 10.49,-26.91 -14.29,-75.19 -37.8,-89.44 -23.51,-14.25 -52.7,-31.95 -52.7,-31.95z"/>
    <path class="fil18" d="M1018.58 3801.76c0,0 -69.4,187.44 -106.22,221.67 0,0 -74.37,8.12 -119.83,-78.44 0,0 80.72,-188.08 90.59,-215.35 9.88,-27.27 73.54,-168.3 73.54,-168.3 0,0 12.22,-46.98 162.39,9.7l-100.47 230.73z"/>
    <path class="fil18" d="M1036.18 3844.45c0,0 -51.99,174.63 -50.11,183.28 1.88,8.66 10.98,25.28 29.31,38.94 18.33,13.67 130.86,-267.37 130.86,-267.37 0,0 74.41,-93.2 69.3,-114.32 -5.11,-21.13 -2.48,-56.97 -2.48,-56.97 0,0 -37.29,-7.05 -67.38,46.22 -30.09,53.28 -109.49,170.22 -109.49,170.22z"/>
    <path class="fil21" d="M1178.31 3625.28l14.49 -35.64c0,0 76.75,27.77 103.42,-25.11 26.67,-52.87 27.6,-86.39 27.6,-86.39 0,0 27.47,-116.8 -56.43,-156.08 -83.9,-39.29 -148.81,18.7 -169.89,79.01 -21.08,60.31 -0.46,132.41 16.07,142.58 16.53,10.16 -13.39,49.86 -13.39,49.86 0,0 36.83,61.28 78.13,31.77z"/>
    <path class="fil22" d="M1191.72 3387.08c0,0 96.26,57.98 153.13,37.19 56.88,-20.78 51.41,-82.04 25.16,-98.44 -26.25,-16.41 -35,0 -35,0 0,0 -31.06,-23.1 -39.38,-7.29 0,0 -87.51,-33.18 -103.92,-25.52 -16.41,7.66 -16.41,7.66 -16.41,7.66 0,0 20.78,-18.6 10.94,-20.78 -9.84,-2.19 -22.97,13.12 -22.97,13.12 0,0 -37.19,-2.18 -33.91,5.47 3.28,7.66 16.98,10.75 16.98,10.75 0,0 -51.6,24.26 -57.8,103.01 -6.21,78.75 0,94.07 0,94.07 0,0 2.05,74.67 29.64,51.01 27.59,-23.66 -1.94,-58.67 -1.94,-66.32 0,-7.65 -10.94,-42.66 3.28,-55.78 14.22,-13.13 26.82,10.94 26.82,10.94 0,0 -12.6,35 -7.13,38.29 5.47,3.28 21.88,-2.25 24.06,-13.16 2.19,-10.91 3.28,-33.88 5.47,-38.25 2.19,-4.38 21.88,-13.13 24.06,-18.6 2.19,-5.47 -1.09,-27.35 -1.09,-27.35z"/>
    <path class="fil19" d="M1127.88 3556.45c0,0 -60.8,-3.49 -63.25,1.62 -2.45,5.12 15.56,37.03 15.56,37.03 0,0 -71.23,100.04 -67.35,151.12 3.88,51.07 -0.66,79.36 -0.66,79.36 0,0 120.63,-250.63 115.7,-269.14z"/>
    <path class="fil19" d="M1186.16 3592.8c0,0 38.52,47.17 35.81,52.16 -2.7,4.99 -39.12,9.13 -39.12,9.13 0,0 -39.18,116.4 -82.81,143.24 -43.63,26.84 -63.87,47.12 -63.87,47.12 0,0 132.09,-244.78 149.98,-251.65z"/>
    <path class="fil20" d="M971.5 3551.86c0,0 -200.09,42.72 -218.93,57.05 -18.83,14.34 -162.67,153.04 -162.67,153.04 0,0 17.12,65.57 66.78,54.19 49.66,-11.38 104.19,-120.97 124.01,-120.97 19.82,0 184.21,-47.94 208.18,-56.51 23.97,-8.56 16.37,-94.18 -17.38,-86.8z"/>
    <path class="fil21" d="M1367.29 3652.39l8.34 -30.1c0,0 -20.3,-20.35 -20.3,-27.97 0,-7.61 10.15,-46.95 20.3,-46.95 10.15,0 57.1,-26.64 65.98,-6.34 8.88,20.3 0,20.3 0,20.3 0,0 15.51,19.03 3.95,32.99 0,0 -1.41,20.4 -5.22,27.97 -3.81,7.56 -26.64,12.64 -26.64,12.64l-8.03 26.35c0,0 -31.4,24.11 -38.37,-8.88z"/>
    <g>
     <g>
      <path class="fil22" d="M1402.58 3561.95c-5.42,0 -9.85,-4.43 -9.85,-9.84l0 -79.1c0,-5.42 4.43,-9.85 9.85,-9.85 5.41,0 9.84,4.43 9.84,9.85l0 79.1c0,5.41 -4.43,9.84 -9.84,9.84z"/>
      <path class="fil22" d="M1455.23 3467.45c0,29.08 -23.58,52.65 -52.66,52.65 -29.08,0 -52.66,-23.57 -52.66,-52.65 0,-29.08 23.57,-52.66 52.66,-52.66 29.08,0 52.66,23.57 52.66,52.66z"/>
     </g>
     <path class="fil1" d="M1439.81 3467.45c0,20.56 -16.67,37.23 -37.23,37.23 -20.56,0 -37.23,-16.67 -37.23,-37.23 0,-20.56 16.67,-37.23 37.23,-37.23 20.56,0 37.23,16.67 37.23,37.23z"/>
    </g>
   </g>
   <g>
    <g>
     <path class="fil43" d="M4917.58 3673.7c0,0 34.77,137.39 69.85,159.72 35.08,22.33 155.98,-57.85 155.98,-57.85 0,0 5.83,-41.87 16.99,-47.45 11.16,-5.58 29.31,11.16 29.31,11.16 0,0 62.8,-47.45 79.54,-48.84 16.75,-1.39 -32.79,46.05 -32.79,46.05 0,0 2.09,45.32 -14.66,57.55 -16.75,12.23 -58.61,19.21 -58.61,19.21 0,0 -103.46,106.76 -177.23,102.57 -73.77,-4.19 -171.65,-184.91 -171.65,-184.91 0,0 50.24,-76.75 103.27,-57.22z"/>
     <path class="fil44" d="M5094.25 4461.32l21.98 48.07 60.43 -15.11 -49.44 -68.67c0,0 -54.93,-12.36 -32.96,35.71z"/>
     <path class="fil19" d="M4783.02 3959.5c0,0 180.73,45.21 245.07,140.99 64.34,95.78 142.39,335.66 142.39,335.66l-91.58 49.44 -159.31 -289.73 -210.22 -117.14c0,0 10.8,-139.43 73.65,-119.22z"/>
     <polygon class="fil30" points="5134.61,3761.87 5121.42,3822.41 5251.09,3741.02 5261.61,3681.57 "/>
     <path class="fil41" d="M4792.16 3638.53c0,0 54.71,-75.47 100.29,-39.26 45.59,36.22 60.79,98.53 60.79,98.53l-110.93 80.54c0,0 -63.83,-15.2 -50.15,-139.8z"/>
     <path class="fil44" d="M4864.1 3530.19c0,0 31.33,-1.54 33.36,-23.4 2.02,-21.87 13.91,-138.73 135.56,-116.8 87.75,15.81 88.4,97.23 88.4,117.49 0,20.26 -30.41,95.45 -26.35,112.58 4.05,17.12 -32.42,0 -32.42,0 0,0 -37.03,48.61 -49.18,51.93 -12.16,3.31 -73.55,-39.81 -75.49,-61.43 -3.27,-36.38 -38.5,18.43 -54.71,13.27 -16.21,-5.16 -44.43,-60.51 -19.17,-93.62z"/>
     <path class="fil17" d="M4864.1 3530.19c0,0 -221.15,12.11 -263.7,227.19 -42.55,215.08 0,345.57 0,345.57 0,0 129.67,8.47 190.45,-10.95 60.79,-19.43 -37.26,-172.22 78.23,-281.63 92.11,-87.26 -4.98,-280.18 -4.98,-280.18z"/>
     <path class="fil44" d="M4887.54 3716.14c0,0 34.77,137.39 69.85,159.72 35.08,22.33 155.98,-57.85 155.98,-57.85 0,0 5.83,-41.87 16.99,-47.45 11.17,-5.58 29.31,11.16 29.31,11.16 0,0 62.8,-47.45 79.55,-48.84 16.75,-1.39 -32.79,46.05 -32.79,46.05 0,0 2.09,45.32 -14.66,57.55 -16.75,12.23 -58.61,19.21 -58.61,19.21 0,0 -103.46,106.76 -177.23,102.57 -73.77,-4.19 -171.65,-184.91 -171.65,-184.91 0,0 50.24,-76.75 103.26,-57.22z"/>
     <path class="fil41" d="M4735.65 3660.94c0,0 54.71,-75.47 100.29,-39.26 45.59,36.22 60.78,98.52 60.78,98.52l-110.93 80.54c0,0 -63.82,-15.2 -50.14,-139.8z"/>
     <path class="fil44" d="M4996.57 4505.57l21.98 48.06 60.43 -15.1 -49.44 -68.67c0,0 -54.93,-12.36 -32.96,35.71z"/>
     <path class="fil20" d="M4685.34 4003.74c0,0 180.73,45.2 245.07,140.99 64.34,95.78 142.4,335.66 142.4,335.66l-91.58 49.44 -159.31 -289.73 -210.22 -117.14c0,0 -24.55,-30.13 -17.75,-57.03 9.46,-37.41 54.85,-73.94 91.4,-62.18z"/>
     <path class="fil29" d="M5010.54 4544.93c0,0 41.19,3.16 68.44,-13.4 0,0 108.61,63.68 132.02,72.6 23.41,8.92 21.18,37.9 0,39.01 -21.18,1.12 -191.36,-15.6 -200.46,-25.64 -9.1,-10.03 -13.19,-61.54 0,-72.57z"/>
     <path class="fil29" d="M5106.14 4489.48c0,0 41.19,3.16 68.43,-13.4 0,0 108.62,63.68 132.02,72.6 23.41,8.92 21.18,37.9 0,39.02 -21.18,1.11 -191.36,-15.61 -200.45,-25.64 -9.1,-10.03 -13.2,-61.55 0,-72.57z"/>
     <path class="fil29" d="M4886.9 3523.19c0,0 -14.76,12.48 -5.85,-39.59 8.92,-52.07 53.5,-111.15 65.76,-110.03 0,0 -24.96,-11.78 -11.37,-16.48 13.6,-4.7 28.09,3.74 28.09,3.74 0,0 27.74,-25.87 33.6,-14.62 5.86,11.26 -9.42,19.37 -9.42,19.37 0,0 41.59,-19.92 75.03,13.55 33.44,33.47 78.02,45.7 78.02,45.7 0,0 32.64,-5.54 35.67,28.98 3.03,34.52 -27.87,20.02 -27.87,20.02 0,0 45.7,27.71 14.49,50.66 -31.21,22.95 -43.47,14.39 -67.99,6.96 -24.52,-7.42 -31.21,-21.71 -43.47,-24.04 -12.26,-2.33 -38.13,0.04 -38.13,0.04 0,0 -16.06,42.21 -25.75,39.98 -9.69,-2.23 -18.6,-4.29 -13.03,-17.75 5.57,-13.46 18.26,-32.41 13.03,-41.32 -5.23,-8.92 -44.66,-8.11 -47.79,26.6 -3.13,34.71 -34.22,50.37 -43.2,43.65 -8.97,-6.72 -9.82,-35.44 -9.82,-35.44z"/>
    </g>
   </g>
  </g>
 </g>
</svg>
